
<svg width="32" height="32" viewBox="0 0 32 32" fill="none" xmlns="http://www.w3.org/2000/svg">
  <rect width="32" height="32" rx="8" fill="#F97316"/>
  <path d="M8 12C8 9.79086 9.79086 8 12 8H20C22.2091 8 24 9.79086 24 12V20C24 22.2091 22.2091 24 20 24H12C9.79086 24 8 22.2091 8 20V12Z" fill="white"/>
  <path d="M15 14C15 13.4477 15.4477 13 16 13C16.5523 13 17 13.4477 17 14V19C17 19.5523 16.5523 20 16 20C15.4477 20 15 19.5523 15 19V14Z" fill="#F97316"/>
  <path d="M12 16C11.4477 16 11 16.4477 11 17C11 17.5523 11.4477 18 12 18H20C20.5523 18 21 17.5523 21 17C21 16.4477 20.5523 16 20 16H12Z" fill="#F97316"/>
</svg>
